<svg id="Capa_1" enable-background="new 0 0 511.997 511.997" viewBox="0 0 511.997 511.997" xmlns="http://www.w3.org/2000/svg"><g><path d="m226.554 166.843v48.838c0 11.685 12.791 18.746 22.659 12.804l40.542-24.42c9.657-5.819 9.634-19.802-.001-25.606l-40.541-24.419c-9.937-5.986-22.659 1.188-22.659 12.803zm55.384 24.419-40.385 24.323.002-48.647z"/><path d="m275.351 114.867c-4.017-1.022-8.097 1.401-9.119 5.416s1.402 8.097 5.416 9.119c28.363 7.225 48.172 32.662 48.172 61.86 0 35.19-28.63 63.82-63.82 63.82s-63.82-28.63-63.82-63.82c0-29.198 19.809-54.636 48.172-61.86 4.014-1.022 6.438-5.104 5.416-9.119s-5.11-6.438-9.119-5.416c-35.015 8.918-59.469 40.333-59.469 76.396 0 43.462 35.358 78.82 78.82 78.82s78.82-35.358 78.82-78.82c-.001-36.063-24.455-67.478-59.469-76.396z"/><path d="m477.692 28.32h-443.387c-18.916 0-34.305 15.388-34.305 34.305v257.275c0 18.916 15.389 34.305 34.305 34.305h32.868c-.807 13.721 4.223 26.389 13.008 35.678h-.499c-23.601 0-42.801 19.2-42.801 42.801v34.138c0 9.295 7.562 16.856 16.856 16.856h122.366c3.459 0 6.677-1.05 9.355-2.845 2.679 1.795 5.897 2.845 9.356 2.845h122.366c3.46 0 6.677-1.05 9.356-2.845 2.679 1.795 5.897 2.845 9.356 2.845h122.366c9.295 0 16.856-7.562 16.856-16.856v-34.138c0-23.601-19.2-42.801-42.801-42.801h-.5c8.764-9.266 13.816-21.923 13.009-35.678h32.867c18.916 0 34.305-15.389 34.305-34.305v-111.138c0-4.143-3.357-7.5-7.5-7.5s-7.5 3.357-7.5 7.5v111.138c0 10.645-8.66 19.305-19.305 19.305h-36.218c-2.193-5.468-5.468-10.618-9.612-15h42.635c4.143 0 7.5-3.357 7.5-7.5v-250.885c0-4.143-3.357-7.5-7.5-7.5h-436.994c-4.143 0-7.5 3.357-7.5 7.5v250.885c0 4.143 3.357 7.5 7.5 7.5h42.635c-4.058 4.291-7.347 9.355-9.612 15h-36.218c-10.645 0-19.305-8.661-19.305-19.305v-257.275c0-10.645 8.66-19.305 19.305-19.305h443.388c10.645 0 19.305 8.66 19.305 19.305v111.138c0 4.143 3.357 7.5 7.5 7.5s7.5-3.357 7.5-7.5v-111.138c-.001-18.917-15.39-34.305-34.306-34.305zm-299.733 438.501c0 1.023-.832 1.856-1.855 1.856h-122.367c-1.023 0-1.856-.833-1.856-1.856v-34.138c0-15.329 12.472-27.801 27.801-27.801h70.478c15.329 0 27.8 12.472 27.8 27.801v34.138zm-95.878-109.778c0-18.032 14.645-32.839 32.839-32.839 18.138 0 32.839 14.76 32.839 32.839 0 18.107-14.731 32.839-32.839 32.839s-32.839-14.731-32.839-32.839zm103.378 51.473c-7.721-11.242-20.661-18.634-35.3-18.634h-.5c8.764-9.266 13.816-21.923 13.009-35.678h45.583c-.807 13.746 4.239 26.405 13.009 35.678h-.5c-14.639 0-27.58 7.391-35.301 18.634zm-35.754-84.311h71.509c-4.136 4.374-7.415 9.522-9.612 15h-52.284c-2.266-5.646-5.555-10.71-9.613-15zm169.333 142.616c0 1.023-.833 1.856-1.856 1.856h-122.367c-1.023 0-1.856-.833-1.856-1.856v-34.138c0-15.329 12.472-27.801 27.801-27.801h70.478c15.329 0 27.801 12.472 27.801 27.801v34.138zm-95.879-109.778c0-18.145 14.77-32.839 32.84-32.839 18.075 0 32.839 14.697 32.839 32.839 0 18.107-14.731 32.839-32.839 32.839s-32.84-14.731-32.84-32.839zm103.379 51.473c-7.721-11.242-20.662-18.634-35.301-18.634h-.499c8.764-9.266 13.816-21.923 13.009-35.678h45.583c-.807 13.747 4.239 26.406 13.009 35.678h-.499c-14.64 0-27.581 7.391-35.302 18.634zm-35.754-84.311h71.509c-4.198 4.44-7.447 9.603-9.613 15h-52.284c-2.264-5.646-5.554-10.71-9.612-15zm141.532 80.677c15.329 0 27.801 12.472 27.801 27.801v34.138c0 1.023-.833 1.856-1.856 1.856h-122.366c-1.023 0-1.856-.833-1.856-1.856v-34.138c0-15.329 12.472-27.801 27.801-27.801zm-68.078-47.839c0-18.098 14.72-32.839 32.839-32.839 18.11 0 32.84 14.733 32.84 32.839 0 18.107-14.731 32.839-32.84 32.839-18.107 0-32.839-14.731-32.839-32.839zm-319.238-47.838v-235.885h421.997v235.885z"/></g></svg>
