<svg xmlns="http://www.w3.org/2000/svg" width="36.03" height="36.03" viewBox="0 0 36.03 36.03">
  <path id="Caminho_78" data-name="Caminho 78" d="M53.348,109.417a18.015,18.015,0,1,0,18.015,18.015,18.015,18.015,0,0,0-18.015-18.015ZM48.114,136.65H43.727v-13.2h4.387Zm-2.195-15h-.028a2.509,2.509,0,1,1,.028,0Zm18.013,15H59.548v-7.06c0-1.775-.636-2.986-2.223-2.986a2.4,2.4,0,0,0-2.251,1.606,2.971,2.971,0,0,0-.146,1.07v7.37H50.541s.059-11.962,0-13.2h4.387v1.868a4.359,4.359,0,0,1,3.955-2.178c2.885,0,5.049,1.887,5.049,5.941Z" transform="translate(-35.333 -109.417)" fill="#5596B8"/>
</svg>
