<?xml version="1.0" encoding="UTF-8" standalone="no"?>
<svg
   xmlns:dc="http://purl.org/dc/elements/1.1/"
   xmlns:cc="http://creativecommons.org/ns#"
   xmlns:rdf="http://www.w3.org/1999/02/22-rdf-syntax-ns#"
   xmlns:svg="http://www.w3.org/2000/svg"
   xmlns="http://www.w3.org/2000/svg"
   viewBox="0 0 23.269173 23.408261"
   version="1.1"
   id="svg8">
  <defs
     id="defs2" />
  <metadata
     id="metadata5">
    <rdf:RDF>
      <cc:Work
         rdf:about="">
        <dc:format>image/svg+xml</dc:format>
        <dc:type
           rdf:resource="http://purl.org/dc/dcmitype/StillImage" />
        <dc:title></dc:title>
      </cc:Work>
    </rdf:RDF>
  </metadata>
  <g
     id="layer1"
     transform="translate(-154.81323,-178.04868)">
    <path
       style="fill:#5596B8;fill-opacity:1;stroke-width:0.264583"
       d="m 163.54448,201.12657 c -3.35689,-0.83315 -6.26193,-3.19808 -7.8223,-6.36798 -0.88299,-1.79379 -0.90895,-1.9375 -0.90895,-5.03265 0,-3.09515 0.026,-3.23885 0.90895,-5.03264 3.59296,-7.29913 13.22076,-8.91799 18.95206,-3.1867 3.50629,3.50629 4.39796,8.76918 2.25112,13.2868 -2.34463,4.93385 -8.08054,7.64865 -13.38088,6.33317 z m 3.31745,-5.74639 c 2.54931,-0.76379 4.88644,-3.6215 5.19536,-6.35257 0.0981,-0.86771 0.35144,-1.60209 0.65246,-1.89166 0.60655,-0.5835 0.64067,-1.02232 0.0622,-0.80035 -0.36846,0.14139 -0.35912,0.0571 0.0654,-0.59088 0.48914,-0.74652 0.48873,-0.75316 -0.0332,-0.54009 -1.10826,0.45242 -1.43976,0.46059 -2.02604,0.0499 -1.51946,-1.06427 -3.78092,0.0291 -4.09267,1.97865 -0.15192,0.95 -0.21933,1.01848 -0.85917,0.87271 -1.26592,-0.28839 -3.45292,-1.37913 -4.13714,-2.06334 l -0.67433,-0.67434 -0.23918,0.6291 c -0.26786,0.70453 -0.1056,1.59207 0.44821,2.45153 0.3416,0.53015 0.32814,0.56394 -0.17247,0.43303 -0.50328,-0.13161 -0.52195,-0.0816 -0.25528,0.68334 0.15824,0.45393 0.57745,1.05325 0.93158,1.3318 0.50552,0.39765 0.55514,0.52522 0.23091,0.59372 -0.36934,0.078 -0.36668,0.15299 0.0251,0.70961 0.24093,0.3423 0.80973,0.78053 1.264,0.97386 l 0.82595,0.35149 -0.98369,0.41521 c -0.54103,0.22837 -1.3447,0.41521 -1.78594,0.41521 -0.44123,0 -0.80224,0.11906 -0.80224,0.26458 0,0.14552 0.0298,0.26638 0.0661,0.26857 0.0364,0.002 0.5424,0.17556 1.12448,0.38526 1.28205,0.46188 3.80819,0.51349 5.16953,0.10562 z"
       id="path895" />
  </g>
</svg>
