<?xml version="1.0" encoding="UTF-8" standalone="no"?>
<svg
   xmlns:dc="http://purl.org/dc/elements/1.1/"
   xmlns:cc="http://creativecommons.org/ns#"
   xmlns:rdf="http://www.w3.org/1999/02/22-rdf-syntax-ns#"
   xmlns:svg="http://www.w3.org/2000/svg"
   xmlns="http://www.w3.org/2000/svg"
   viewBox="0 0 23.125601 23.209119"
   version="1.1"
   id="svg8">
  <defs
     id="defs2" />
  <metadata
     id="metadata5">
    <rdf:RDF>
      <cc:Work
         rdf:about="">
        <dc:format>image/svg+xml</dc:format>
        <dc:type
           rdf:resource="http://purl.org/dc/dcmitype/StillImage" />
        <dc:title></dc:title>
      </cc:Work>
    </rdf:RDF>
  </metadata>
  <g
     id="layer1"
     transform="translate(-183.55852,-181.68806)">
    <path
       style="fill:#5596B8;fill-opacity:1;stroke-width:0.264583"
       d="m 192.99566,204.67061 c -0.68679,-0.11571 -1.92863,-0.52165 -2.75964,-0.9021 -4.47606,-2.04921 -6.92659,-6.22991 -6.65744,-11.35786 0.10089,-1.92223 0.25974,-2.53795 1.0861,-4.20999 2.46746,-4.99255 7.94394,-7.52364 13.2746,-6.13518 2.23915,0.58322 3.9015,1.57663 5.57601,3.33218 6.39456,6.70402 2.57425,17.776 -6.65497,19.28742 -1.74526,0.28581 -2.08998,0.28452 -3.86466,-0.0145 z m 3.23308,-7.53259 v -3.30729 h 1.03003 c 1.11704,0 1.35122,-0.27889 1.35122,-1.60914 0,-0.73871 -0.0515,-0.77211 -1.19062,-0.77211 h -1.19063 v -1.18132 c 0,-1.32823 0.42888,-1.7291 1.84991,-1.7291 0.80855,0 0.8246,-0.0242 0.74499,-1.12448 l -0.0814,-1.12448 -1.37631,-0.0795 c -2.5564,-0.14772 -3.78306,1.07489 -3.78306,3.77056 v 1.46835 h -1.05833 -1.05834 v 1.19062 1.19063 h 1.05834 1.05833 v 3.30729 3.30729 h 1.32292 1.32291 z"
       id="path70" />
  </g>
</svg>
