<?xml version="1.0" encoding="UTF-8" standalone="no"?>
<svg
   xmlns:dc="http://purl.org/dc/elements/1.1/"
   xmlns:cc="http://creativecommons.org/ns#"
   xmlns:rdf="http://www.w3.org/1999/02/22-rdf-syntax-ns#"
   xmlns:svg="http://www.w3.org/2000/svg"
   xmlns="http://www.w3.org/2000/svg"
   viewBox="0 0 23.339924 23.267588"
   version="1.1"
   id="svg8">
  <defs
     id="defs2" />
  <metadata
     id="metadata5">
    <rdf:RDF>
      <cc:Work
         rdf:about="">
        <dc:format>image/svg+xml</dc:format>
        <dc:type
           rdf:resource="http://purl.org/dc/dcmitype/StillImage" />
        <dc:title></dc:title>
      </cc:Work>
    </rdf:RDF>
  </metadata>
  <g
     id="layer1"
     transform="translate(-124.75233,-183.62149)">
    <path
       style="fill:#5596B8;fill-opacity:1;stroke-width:0.264583"
       d="m 133.73246,206.55818 c -5.89931,-1.43649 -9.77836,-7.19431 -8.84047,-13.12225 0.70579,-4.46099 3.76234,-8.02178 7.98742,-9.30511 2.77551,-0.84303 6.04838,-0.62805 8.51868,0.55956 4.67644,2.24823 7.42524,7.44759 6.52382,12.3398 -0.47746,2.59123 -1.47426,4.49399 -3.32253,6.34226 -2.99498,2.99498 -6.92221,4.14629 -10.86692,3.18574 z m 9.18072,-6.2756 c 0.93049,-0.49798 1.27032,-1.85782 1.27032,-5.08324 0,-1.65645 -0.13517,-3.39949 -0.30039,-3.87342 -0.49717,-1.4262 -1.30621,-1.59852 -7.50482,-1.59852 -6.39686,0 -7.07501,0.15913 -7.52088,1.7648 -0.35711,1.28606 -0.36602,6.00024 -0.0137,7.26854 0.37631,1.35479 0.86733,1.65773 3.01002,1.85708 2.59991,0.24188 10.4243,0.005 11.05949,-0.33524 z m -7.9901,-5.1125 v -2.00975 l 1.85209,0.93269 c 1.01864,0.51299 1.85208,0.98902 1.85208,1.05786 0,0.0983 -2.51336,1.4883 -3.50573,1.93886 -0.10914,0.0496 -0.19844,-0.8143 -0.19844,-1.91966 z"
       id="path899" />
  </g>
</svg>
