<svg xmlns="http://www.w3.org/2000/svg" width="35.2" height="35.2" viewBox="0 0 35.2 35.2">
  <path id="Caminho_79" data-name="Caminho 79" d="M33.063,109.75a17.6,17.6,0,1,0,17.6,17.6A17.6,17.6,0,0,0,33.063,109.75Zm8.647,12.06-2.892,13.617c-.214.965-.786,1.2-1.589.746l-4.4-3.244L30.7,134.974a1.108,1.108,0,0,1-.887.432l.312-4.479,8.157-7.368c.357-.312-.077-.488-.547-.178l-10.079,6.347-4.345-1.354c-.944-.3-.965-.944.2-1.4l16.973-6.544c.789-.284,1.476.192,1.221,1.383Z" transform="translate(-15.463 -109.75)" fill="#5596B8"/>
</svg>
