<?xml version="1.0" encoding="UTF-8" standalone="no"?>
<svg
   xmlns:dc="http://purl.org/dc/elements/1.1/"
   xmlns:cc="http://creativecommons.org/ns#"
   xmlns:rdf="http://www.w3.org/1999/02/22-rdf-syntax-ns#"
   xmlns:svg="http://www.w3.org/2000/svg"
   xmlns="http://www.w3.org/2000/svg"
   viewBox="0 0 23.278269 23.296144"
   version="1.1"
   id="svg8">
  <defs
     id="defs2" />
  <metadata
     id="metadata5">
    <rdf:RDF>
      <cc:Work
         rdf:about="">
        <dc:format>image/svg+xml</dc:format>
        <dc:type
           rdf:resource="http://purl.org/dc/dcmitype/StillImage" />
        <dc:title></dc:title>
      </cc:Work>
    </rdf:RDF>
  </metadata>
  <g
     id="layer1"
     transform="translate(-83.451104,-179.52319)">
    <path
       style="fill:#5596B8;fill-opacity:1;stroke-width:0.264583"
       d="m 92.169414,202.4404 c -5.16891,-1.40714 -8.71831,-6.0002 -8.71831,-11.28182 0,-6.36646 5.26591,-11.63539 11.62873,-11.63539 7.830866,0 13.444566,7.63022 11.119106,15.11325 -1.81481,5.83983 -8.199206,9.39117 -14.029526,7.80396 z m 7.12495,-5.39525 c 1.814566,-0.92528 2.003176,-1.47951 2.003176,-5.88657 0,-4.40706 -0.18861,-4.96129 -2.003176,-5.88657 -1.31113,-0.66855 -7.11793,-0.66855 -8.42906,0 -1.81457,0.92528 -2.00318,1.47951 -2.00318,5.88657 0,3.55806 0.0519,4.00063 0.54798,4.67695 1.01115,1.37842 2.0073,1.67223 5.66973,1.67223 2.62637,0 3.49408,-0.0952 4.21453,-0.46261 z m -8.59218,-1.50892 c -0.62807,-0.62807 -0.64943,-0.77207 -0.64943,-4.37765 0,-3.60558 0.0214,-3.74958 0.64943,-4.37765 0.62807,-0.62807 0.77207,-0.64943 4.37765,-0.64943 3.60558,0 3.74958,0.0214 4.37765,0.64943 0.628066,0.62807 0.649426,0.77207 0.649426,4.37765 0,3.60558 -0.0214,3.74958 -0.649426,4.37765 -0.62807,0.62807 -0.77207,0.64943 -4.37765,0.64943 -3.60558,0 -3.74958,-0.0214 -4.37765,-0.64943 z m 6.65307,-2.10223 c 0.78632,-0.78633 0.89958,-1.06837 0.89958,-2.24014 0,-1.1817 -0.11078,-1.45134 -0.93486,-2.27542 -0.81743,-0.81743 -1.09883,-0.93486 -2.24014,-0.93486 -1.14131,0 -1.42271,0.11743 -2.24014,0.93486 -0.76098,0.76098 -0.93486,1.13331 -0.93486,2.00177 0,2.10543 1.24933,3.40999 3.2676,3.41206 1.10746,0.001 1.40646,-0.12191 2.18282,-0.89827 z m -3.24877,-0.47327 c -0.31707,-0.15329 -0.72523,-0.63782 -0.90704,-1.07674 -0.39873,-0.96262 0.0309,-1.93904 1.12297,-2.55199 0.56769,-0.31863 0.82287,-0.32717 1.49216,-0.0499 1.61398,0.66853 1.71497,2.98623 0.16097,3.69428 -0.78255,0.35655 -1.10484,0.35386 -1.86906,-0.0156 z m 5.11888,-4.86537 c 0.21231,-0.55328 -0.49381,-1.23491 -1.05585,-1.01924 -0.44233,0.16974 -0.60263,0.92507 -0.26746,1.26024 0.32973,0.32973 1.16249,0.17806 1.32331,-0.241 z"
       id="path897" />
  </g>
</svg>
