<?xml version="1.0" encoding="UTF-8" standalone="no"?>
<!-- Created with Inkscape (http://www.inkscape.org/) -->

<svg
   xmlns:dc="http://purl.org/dc/elements/1.1/"
   xmlns:cc="http://creativecommons.org/ns#"
   xmlns:rdf="http://www.w3.org/1999/02/22-rdf-syntax-ns#"
   xmlns:svg="http://www.w3.org/2000/svg"
   xmlns="http://www.w3.org/2000/svg"
   xmlns:sodipodi="http://sodipodi.sourceforge.net/DTD/sodipodi-0.dtd"
   xmlns:inkscape="http://www.inkscape.org/namespaces/inkscape"
   version="1.1"
   id="svg2"
   viewBox="0 0 700 700.00003"
   sodipodi:docname="sebrae-logo.svg"
   inkscape:export-filename="G:\Users\suitedoalex\sites\sebrae-logo-0.png"
   inkscape:export-xdpi="561.73712"
   inkscape:export-ydpi="561.73712"
   inkscape:version="0.92.4 (5da689c313, 2019-01-14)"><metadata
     id="metadata8"><rdf:RDF><cc:Work
         rdf:about=""><dc:format>image/svg+xml</dc:format><dc:type
           rdf:resource="http://purl.org/dc/dcmitype/StillImage" /><dc:title></dc:title></cc:Work></rdf:RDF></metadata><defs
     id="defs6" /><sodipodi:namedview
     pagecolor="#ffffff"
     bordercolor="#666666"
     borderopacity="1"
     objecttolerance="10"
     gridtolerance="10"
     guidetolerance="10"
     inkscape:pageopacity="0"
     inkscape:pageshadow="2"
     inkscape:window-width="1600"
     inkscape:window-height="837"
     id="namedview4"
     showgrid="false"
     inkscape:zoom="0.59465222"
     inkscape:cx="408.64864"
     inkscape:cy="475.04878"
     inkscape:window-x="-8"
     inkscape:window-y="-8"
     inkscape:window-maximized="1"
     inkscape:current-layer="g10" /><g
     id="g10"
     inkscape:groupmode="layer"
     inkscape:label="sebrae-logo"
     transform="matrix(1.3333333,0,0,-1.3333333,0,700.00005)"><path
       d="m 311.01967,229.45708 40.75295,65.87471 h 22.70496 l 12.28379,-65.883 h -21.0304 l -1.76859,13.23182 H 337.0706 l -7.44475,-13.23182 h -18.60532 -0.006 -20.18698 c -0.12404,2.44595 0.21722,7.42846 1.0232,14.94781 0.24865,2.62888 0.37269,4.43319 0.37269,5.41094 0,2.01724 -0.51188,3.43829 -1.53508,4.26399 -1.02405,0.82542 -3.02443,1.23784 -6.00256,1.23784 h -7.81574 l -5.58385,-25.86058 H 252.582 l 14.23787,66.21025 h 31.07974 c 5.33577,0 8.87123,-0.12232 10.60838,-0.36698 4.21854,-0.61106 7.22725,-2.07812 9.02585,-4.40174 1.67541,-2.07898 2.51312,-4.67698 2.51312,-7.79459 0,-1.58967 -0.18635,-3.27051 -0.55876,-5.04339 -1.24041,-5.6856 -4.1871,-9.78181 -8.83979,-12.28865 -3.03986,-1.65112 -6.70022,-2.78206 -10.98021,-3.39284 l -0.0932,-0.36697 c 4.83818,-0.12233 8.1267,-1.0695 9.86385,-2.84295 1.48906,-1.46706 2.23274,-3.94302 2.23274,-7.42761 0,-1.16181 -0.0932,-3.14904 -0.27866,-5.96112 -0.55819,-8.18443 -0.68223,-13.62223 -0.37356,-16.31512 z m -136.98488,-71.2948 h 121.97562 l 4.53865,22.56549 H 178.57344 Z m 7.45191,35.0179 h 121.97561 l 4.53865,22.56549 H 186.02534 Z m 24.40552,116.07423 h 121.97476 l 4.5395,22.56634 H 210.43087 Z m 7.4519,35.0179 h 121.97476 l 4.5395,22.56549 H 217.88277 Z m 177.51604,-114.82352 14.23701,66.1891 h 50.43531 l -2.69861,-12.68649 h -32.01062 l -2.97728,-13.78886 h 30.14943 l -2.79178,-12.6865 h -30.14943 l -2.97756,-14.15698 h 32.7543 L 442.04,229.44879 Z m -260.25577,0 14.237,66.1891 h 50.43445 l -2.69861,-12.68649 h -32.01062 l -2.97727,-13.78886 h 30.14943 l -2.79178,-12.6865 H 154.79756 L 151.82,242.31906 h 32.75515 l -2.79178,-12.87027 z m -60.495218,21.57573 h 18.42554 c -0.24465,-1.16925 -0.36698,-2.13414 -0.36698,-2.8941 0,-4.61954 3.11675,-6.9283 9.34996,-6.9283 6.539028,0 10.358868,2.39708 11.458378,7.19181 0.12232,0.58391 0.18291,1.13981 0.18291,1.66655 0,2.16301 -1.52707,3.65379 -4.58294,4.47292 l -15.308228,4.03362 c -8.67773,2.28076 -13.01689,6.69536 -13.01689,13.24382 0,1.28672 0.15234,2.65974 0.45844,4.12223 1.28357,5.61272 4.49178,10.2031 9.62491,13.76971 5.80564,4.03448 13.35329,6.05172 22.641798,6.05172 15.52286,0 23.28429,-4.79445 23.28429,-14.38363 0,-1.57909 -0.24465,-3.50888 -0.73338,-5.78849 h -18.60875 c 0.30553,1.16896 0.45787,2.163 0.45787,2.98213 0,3.85871 -2.38279,5.78792 -7.1498,5.78792 -2.6283,0 -4.88934,-0.62792 -6.783398,-1.88548 -1.89434,-1.25727 -3.02529,-2.85009 -3.39141,-4.77987 -0.12232,-0.52675 -0.18406,-1.0232 -0.18406,-1.49164 0,-2.39651 1.80346,-4.06278 5.408648,-4.99851 l 11.64215,-3.06988 c 5.07254,-1.34473 8.61629,-2.68975 10.63267,-4.03448 3.42314,-2.2216 5.13399,-5.43723 5.13399,-9.64749 0,-1.40332 -0.18292,-2.92325 -0.5499,-4.56065 -1.46648,-6.78254 -5.40893,-11.95711 -11.82535,-15.52344 -5.86652,-3.2748 -13.16922,-4.9122 -21.908408,-4.9122 -11.30604,0 -18.76194,2.51483 -22.36713,7.54279 -1.71114,2.33877 -2.56657,5.20458 -2.56657,8.59513 0,1.40304 0.21379,3.21621 0.64164,5.43781 z m 118.873438,-21.57573 14.1747,66.40374 h 36.35207 c 1.16009,-0.0937 2.15271,-0.21121 2.97898,-0.35154 4.28028,-0.80055 7.53708,-2.40137 9.77067,-4.80331 2.04725,-2.21759 3.07045,-4.89591 3.07045,-8.03695 0,-1.10837 -0.12375,-2.24818 -0.37184,-3.41828 -1.67541,-7.69798 -7.53707,-12.7488 -17.58697,-15.15074 l -0.0932,-0.18492 c 8.74719,-1.60081 13.12064,-5.72761 13.12064,-12.37839 0,-4.18768 -1.17896,-7.99065 -3.53632,-11.4095 -2.35678,-3.41828 -5.50611,-6.05058 -9.44513,-7.89833 -3.93902,-1.84719 -10.18852,-2.77178 -18.75051,-2.77178 z m 29.77674,54.59726 -3.16362,-14.78062 h 8.74747 c 3.28766,0 5.52126,0.27695 6.69994,0.83113 2.60543,1.293 4.21768,3.44886 4.83846,6.46672 0.55819,2.58686 0.12376,4.55722 -1.303,5.91282 -1.11637,1.04663 -3.00814,1.56995 -5.67589,1.56995 z m -5.67589,-26.60597 -3.34939,-15.79667 h 10.328 c 6.38983,0 10.14336,2.58685 11.25973,7.76 0.18635,0.80026 0.27952,1.53994 0.27952,2.21731 0,3.87985 -2.91582,5.81936 -8.74747,5.81936 z m 130.96603,-2.62316 h 18.23834 l -2.69861,27.6486 h -0.27867 z m -61.13143,28.64579 -3.44314,-16.23167 h 6.97975 c 3.9696,0 6.57532,0.1832 7.8163,0.55018 3.53575,1.03949 5.70761,3.54603 6.51388,7.51992 0.18549,0.85543 0.27866,1.6194 0.27866,2.29191 0,2.56828 -1.24041,4.28027 -3.7218,5.1357 -1.4885,0.48931 -3.97075,0.73396 -7.4439,0.73396 z"
       style="fill:#fff;fill-opacity:1;fill-rule:evenodd;stroke:none;stroke-width:2.85809112"
       id="path68"
       inkscape:connector-curvature="0"
       inkscape:export-xdpi="74.527191"
       inkscape:export-ydpi="74.527191" /></g></svg>
