<svg xmlns="http://www.w3.org/2000/svg" width="158.029" height="97.467" viewBox="0 0 158.029 97.467"><defs><style>.a,.b{fill:#fff;}.a{fill-rule:evenodd;}</style></defs><g transform="translate(-31.8 22.986)"><path class="a" d="M147.294,50.307l-1.4,5.9h2.849a15.759,15.759,0,0,0,3.193-.2,3.436,3.436,0,0,0,2.661-2.732,3.571,3.571,0,0,0,.113-.833,1.857,1.857,0,0,0-1.521-1.866,12.153,12.153,0,0,0-3.04-.266Zm24.967,10.407h7.449l-1.1-10.045H178.5ZM118.77,59.76,117.4,65.5h4.218q3.916,0,4.6-2.818a3.136,3.136,0,0,0,.115-.806q0-2.112-3.573-2.115Zm2.319-9.665L119.8,55.464h3.571a8.192,8.192,0,0,0,2.737-.3,3.259,3.259,0,0,0,1.977-2.351,1.983,1.983,0,0,0-.533-2.147,3.649,3.649,0,0,0-2.317-.57Zm-12.16,19.834,5.788-24.123h14.847c.473.034.88.076,1.216.128a7.369,7.369,0,0,1,3.991,1.745,3.9,3.9,0,0,1,1.254,2.919,5.412,5.412,0,0,1-.151,1.242q-1.027,4.195-7.184,5.5l-.038.067q5.36.873,5.359,4.5a6.607,6.607,0,0,1-1.443,4.146,9.286,9.286,0,0,1-3.859,2.869,21.337,21.337,0,0,1-7.657,1.006ZM60.377,62.091H67.9a4.749,4.749,0,0,0-.149,1.052q0,2.516,3.819,2.517,4,0,4.68-2.613a2.682,2.682,0,0,0,.074-.606q0-1.179-1.873-1.625L68.2,59.35q-5.317-1.242-5.315-4.81a6.548,6.548,0,0,1,.187-1.5,8.26,8.26,0,0,1,3.931-5,17.361,17.361,0,0,1,9.248-2.2q9.508,0,9.509,5.226a9.288,9.288,0,0,1-.3,2.1h-7.6a3.951,3.951,0,0,0,.187-1.084q0-2.1-2.921-2.1a5.349,5.349,0,0,0-2.771.685A2.674,2.674,0,0,0,70.972,52.4a2.1,2.1,0,0,0-.076.542q0,1.3,2.209,1.815l4.755,1.116a17,17,0,0,1,4.34,1.47,3.834,3.834,0,0,1,2.1,3.5,6.841,6.841,0,0,1-.225,1.657,8.418,8.418,0,0,1-4.829,5.64A20.027,20.027,0,0,1,70.3,69.929q-6.926,0-9.136-2.739a4.76,4.76,0,0,1-1.048-3.123,9.684,9.684,0,0,1,.261-1.976Zm24.706,7.837L90.9,45.883h20.6l-1.1,4.609H97.322L96.105,55.5H108.42l-1.141,4.609H94.965l-1.216,5.142h13.379l-1.141,4.676Zm106.3,0L197.2,45.882h20.6l-1.1,4.609h-13.08L202.4,55.5h12.314l-1.141,4.609H201.261l-1.216,5.142h13.377l-1.139,4.676Zm-72.5-41.714H168.7l1.854-8.2H120.732Zm-3.044,12.722h49.817l1.854-8.2H117.687Zm-9.969,42.17h49.819l1.854-8.2H107.72Zm-3.044,12.72H152.64l1.854-8.2H104.676Zm55.95-25.9L175.42,45.993h9.273l5.017,23.935h-8.588l-.723-4.805H169.411l-3.04,4.805H150.525a39.1,39.1,0,0,1,.416-5.43q.153-1.434.153-1.967a1.781,1.781,0,0,0-.626-1.548,4.584,4.584,0,0,0-2.452-.449h-3.193l-2.281,9.394H134.9l5.815-24.052h12.7q3.269,0,4.332.133a5.681,5.681,0,0,1,3.687,1.6,4.058,4.058,0,0,1,1.027,2.832,8.032,8.032,0,0,1-.229,1.832,6.414,6.414,0,0,1-3.611,4.466,14.511,14.511,0,0,1-4.485,1.232l-.038.133q2.965.066,4.029,1.033a3.432,3.432,0,0,1,.912,2.7c0,.421-.038,1.144-.114,2.165a36.3,36.3,0,0,0-.148,5.925Z" transform="translate(-27.969 -43)"/><g transform="translate(31.796 63.216)"><path class="b" d="M31.8,80.993l4.173-8.534h2.351l.509,8.534H36.949l-.07-1.891H34.443l-.886,1.891ZM36.7,74.1h-.023l-1.6,3.688h1.7Z" transform="translate(-31.796 -72.4)"/><path class="b" d="M44.076,73.5c-.662-.047-.863.212-.993.816l-.154.721h.781l-.21,1.024h-.78L41.664,81H40l1.052-4.94h-.744l.212-1.028h.757c.354-1.714.414-2.624,2.447-2.624.2,0,.378.012.579.023Z" transform="translate(-30.382 -72.409)"/><path class="b" d="M42.819,77.572c.344-1.631.875-3.026,3.073-3.026s2.14,1.4,1.8,3.026c-.4,1.868-.958,3.18-3.108,3.18S42.417,79.44,42.819,77.572Zm3.228-.1c.259-1.24.331-1.868-.379-1.868s-.9.627-1.158,1.868c-.39,1.821-.319,2.211.3,2.211S45.656,79.3,46.047,77.477Z" transform="translate(-29.931 -72.041)"/><path class="b" d="M49.87,74.664l-.154.768h.023a1.891,1.891,0,0,1,1.726-.886l-.307,1.489c-1.454-.094-1.654.756-1.784,1.347l-.686,3.251H47.022l1.264-5.969Z" transform="translate(-29.171 -72.041)"/><path class="b" d="M53.811,76.791c.19-.885.025-1.182-.5-1.182-.709,0-.9.627-1.158,1.868-.39,1.821-.319,2.211.3,2.211.521,0,.875-.474,1.04-1.253H55.16a2.628,2.628,0,0,1-2.66,2.3l-.566.579.012.023a1.007,1.007,0,0,1,.271-.047c.544,0,1.029.283.9.885A1.591,1.591,0,0,1,51.45,83.3a2.772,2.772,0,0,1-1.16-.3l.332-.472a1.85,1.85,0,0,0,.733.19c.319,0,.732-.1.815-.485.107-.472-.6-.472-.945-.331l-.213-.225.91-.945c-1.843-.118-1.831-1.383-1.454-3.156.344-1.631.876-3.026,3.074-3.026,1.536,0,2.269.686,1.938,2.245Z" transform="translate(-28.612 -72.041)"/><path class="b" d="M59.414,79.522c-.082.367-.106.746-.154,1.111H57.713l.094-.791h-.023a2.1,2.1,0,0,1-1.749.91c-1.158,0-1.407-.863-1.182-1.9.426-1.974,1.961-2.058,3.51-2.033l.094-.462c.107-.508.118-.873-.484-.873-.579,0-.721.437-.828.91H55.513a2.127,2.127,0,0,1,.923-1.454,3.024,3.024,0,0,1,1.643-.39c2.116,0,2.2.91,1.974,2ZM56.5,78.778c-.082.426-.13.946.414.946.981,0,1.111-1.325,1.252-1.974-.839.034-1.43-.036-1.666,1.027Z" transform="translate(-27.834 -72.041)"/><path class="b" d="M64.138,80.993l.142-.662h-.023a1.8,1.8,0,0,1-1.572.781c-1.726,0-1.264-1.915-1-3.144.26-1.205.6-3.061,2.281-3.061a1.159,1.159,0,0,1,1.217.686H65.2l.661-3.133h1.667l-1.809,8.534Zm.567-3.038c.249-1.194.437-2.021-.249-2.021-.72,0-.886.828-1.134,2.021-.319,1.5-.355,2.128.247,2.128.569,0,.818-.626,1.137-2.128Z" transform="translate(-26.688 -72.4)"/><path class="b" d="M66.328,77.572c.342-1.631.875-3.026,3.073-3.026s2.14,1.4,1.8,3.026c-.4,1.868-.957,3.18-3.108,3.18S65.926,79.44,66.328,77.572Zm3.226-.1c.26-1.24.331-1.868-.379-1.868s-.9.627-1.158,1.868c-.389,1.821-.319,2.211.3,2.211S69.164,79.3,69.554,77.477Z" transform="translate(-25.878 -72.041)"/><path class="b" d="M74.465,77.914c-.155.709-.355,1.774.378,1.774.591,0,.828-.567.934-1.065h1.691a2.727,2.727,0,0,1-.97,1.549,2.977,2.977,0,0,1-1.879.579c-2.151,0-2.163-1.312-1.761-3.18.342-1.631.875-3.026,3.073-3.026,2.245,0,2.187,1.454,1.726,3.368Zm1.725-.933c.118-.579.32-1.407-.472-1.407-.768,0-.945.9-1.052,1.407Z" transform="translate(-24.752 -72.041)"/><path class="b" d="M79.75,75.267h.023a1.869,1.869,0,0,1,1.56-.721,1.171,1.171,0,0,1,1.182.756,2.2,2.2,0,0,1,1.7-.756c.791,0,1.394.472,1.217,1.3l-1.016,4.787H82.752l.875-4.113c.117-.532.106-.946-.426-.946s-.709.414-.828.946L81.5,80.633H79.868l.875-4.113c.118-.532.106-.946-.426-.946s-.709.414-.828.946l-.875,4.113H76.949l1.264-5.969H79.88Z" transform="translate(-24.011 -72.041)"/><path class="b" d="M86.891,74.664l-.143.661h.025a1.8,1.8,0,0,1,1.571-.78c1.726,0,1.265,1.915,1,3.144-.259,1.205-.6,3.061-2.28,3.061a1.162,1.162,0,0,1-1.218-.686h-.023L85.164,83.2H83.5l1.809-8.534Zm.85,2.931c.249-1.194.437-2.021-.284-2.021-.685,0-.85.828-1.1,2.021-.32,1.5-.355,2.128.212,2.128.6,0,.853-.623,1.172-2.123Z" transform="translate(-22.882 -72.041)"/><path class="b" d="M91.476,74.664l-.154.768h.023a1.891,1.891,0,0,1,1.726-.886l-.307,1.489c-1.454-.094-1.655.756-1.784,1.347l-.686,3.251H88.627l1.265-5.969Z" transform="translate(-21.998 -72.041)"/><path class="b" d="M93.68,77.914c-.154.709-.354,1.774.379,1.774.591,0,.828-.567.933-1.065h1.691a2.715,2.715,0,0,1-.97,1.549,2.972,2.972,0,0,1-1.879.579c-2.15,0-2.163-1.312-1.761-3.18.342-1.631.875-3.026,3.073-3.026,2.246,0,2.187,1.454,1.726,3.368Zm1.726-.933c.118-.579.319-1.407-.472-1.407-.768,0-.946.9-1.052,1.407Z" transform="translate(-21.439 -72.041)"/><path class="b" d="M98.346,77.914c-.155.709-.355,1.774.378,1.774.591,0,.828-.567.934-1.065h1.691a2.723,2.723,0,0,1-.971,1.549,2.969,2.969,0,0,1-1.878.579c-2.151,0-2.163-1.312-1.761-3.18.342-1.631.875-3.026,3.073-3.026,2.245,0,2.187,1.454,1.726,3.368Zm1.725-.933c.118-.579.32-1.407-.472-1.407-.768,0-.945.9-1.052,1.407Z" transform="translate(-20.635 -72.041)"/><path class="b" d="M103.742,75.267h.023a1.985,1.985,0,0,1,.709-.556,2.061,2.061,0,0,1,.851-.165c.791,0,1.394.472,1.217,1.3l-1.016,4.787h-1.667l.876-4.113c.117-.532.106-.946-.426-.946s-.709.414-.828.946l-.875,4.113H100.94l1.265-5.969h1.666Z" transform="translate(-19.875 -72.041)"/><path class="b" d="M108.546,80.993l.141-.662h-.023a1.8,1.8,0,0,1-1.572.781c-1.725,0-1.264-1.915-1-3.144.26-1.205.6-3.061,2.282-3.061a1.161,1.161,0,0,1,1.218.686h.023l.661-3.133h1.667l-1.809,8.534Zm.566-3.038c.249-1.194.438-2.021-.249-2.021-.72,0-.885.828-1.134,2.021-.319,1.5-.354,2.128.249,2.128.568,0,.817-.626,1.135-2.128Z" transform="translate(-19.032 -72.4)"/><path class="b" d="M112.342,77.914c-.154.709-.354,1.774.378,1.774.591,0,.828-.567.934-1.065h1.691a2.715,2.715,0,0,1-.97,1.549,2.975,2.975,0,0,1-1.879.579c-2.151,0-2.163-1.312-1.761-3.18.342-1.631.875-3.026,3.073-3.026,2.246,0,2.187,1.454,1.726,3.368Zm1.726-.933c.118-.579.319-1.407-.472-1.407-.768,0-.946.9-1.053,1.407Z" transform="translate(-18.222 -72.041)"/><path class="b" d="M117.877,80.993l.141-.662h-.023a1.8,1.8,0,0,1-1.572.781c-1.725,0-1.265-1.915-1-3.144.26-1.205.6-3.061,2.281-3.061a1.161,1.161,0,0,1,1.218.686h.023l.661-3.133h1.667l-1.809,8.534Zm.566-3.038c.249-1.194.438-2.021-.249-2.021-.72,0-.885.828-1.134,2.021-.32,1.5-.355,2.128.249,2.128.568,0,.816-.626,1.135-2.128Z" transform="translate(-17.424 -72.4)"/><path class="b" d="M120.066,77.572c.342-1.631.875-3.026,3.073-3.026s2.14,1.4,1.8,3.026c-.4,1.868-.958,3.18-3.109,3.18S119.664,79.44,120.066,77.572Zm3.226-.1c.26-1.24.331-1.868-.378-1.868s-.9.627-1.16,1.868c-.389,1.821-.319,2.211.3,2.211S122.9,79.3,123.292,77.477Z" transform="translate(-16.613 -72.041)"/><path class="b" d="M127.116,74.664l-.154.768h.023a1.893,1.893,0,0,1,1.726-.886l-.307,1.489c-1.454-.094-1.654.756-1.784,1.347l-.686,3.251h-1.667l1.265-5.969Z" transform="translate(-15.854 -72.041)"/><path class="b" d="M130.923,72.459h1.666l-.661,3.133h.023a1.821,1.821,0,0,1,1.5-.686c1.678,0,1.24,1.856.98,3.061-.26,1.23-.6,3.144-2.328,3.144a1.11,1.11,0,0,1-1.24-.781h-.023l-.143.662h-1.584Zm1.891,5.5c.249-1.194.437-2.021-.284-2.021-.685,0-.851.828-1.1,2.021-.32,1.5-.355,2.128.212,2.128.6,0,.858-.63,1.172-2.132Z" transform="translate(-15.018 -72.4)"/><path class="b" d="M136.629,74.664l-.154.768h.023a1.889,1.889,0,0,1,1.726-.886l-.308,1.489a1.455,1.455,0,0,0-1.784,1.347l-.686,3.251H133.78l1.265-5.969Z" transform="translate(-14.214 -72.041)"/><path class="b" d="M141.507,79.522c-.083.367-.107.746-.154,1.111H139.8l.1-.791h-.023a2.1,2.1,0,0,1-1.749.91c-1.158,0-1.407-.863-1.182-1.9.424-1.974,1.961-2.058,3.51-2.033l.1-.462c.106-.508.117-.873-.485-.873-.579,0-.721.437-.828.91H137.6a2.127,2.127,0,0,1,.923-1.454,3.024,3.024,0,0,1,1.643-.39c2.116,0,2.2.91,1.974,2Zm-2.919-.744c-.082.426-.13.946.413.946.981,0,1.113-1.325,1.253-1.974-.84.034-1.431-.036-1.666,1.027Z" transform="translate(-13.681 -72.041)"/><path class="b" d="M143.147,78.719a2.024,2.024,0,0,0-.072.721c.059.189.212.284.544.284a.75.75,0,0,0,.744-.614c.272-1.265-2.719-.981-2.317-2.884.272-1.288,1.631-1.679,2.707-1.679,1.134,0,2.056.544,1.689,1.831h-1.631c.082-.414.082-.661-.012-.768a.454.454,0,0,0-.39-.129.712.712,0,0,0-.709.638c-.2.946,2.742.9,2.34,2.813a2.515,2.515,0,0,1-2.624,1.821c-1.454,0-2.352-.367-1.9-2.033Z" transform="translate(-12.9 -72.041)"/><path class="b" d="M147.316,80.993H145.65l1.264-5.969h1.667Zm1.809-8.534-.272,1.312h-1.667l.272-1.312Z" transform="translate(-12.167 -72.4)"/><path class="b" d="M151.553,72.459l-1.808,8.534h-1.667l1.808-8.534Z" transform="translate(-11.749 -72.4)"/><path class="b" d="M152.457,77.914c-.155.709-.355,1.774.378,1.774.591,0,.828-.567.933-1.065h1.692a2.727,2.727,0,0,1-.97,1.549,2.974,2.974,0,0,1-1.879.579c-2.151,0-2.163-1.312-1.761-3.18.342-1.631.873-3.026,3.072-3.026,2.246,0,2.188,1.454,1.727,3.368Zm1.725-.933c.118-.579.32-1.407-.472-1.407-.768,0-.946.9-1.052,1.407Z" transform="translate(-11.306 -72.041)"/><path class="b" d="M156.839,80.993h-1.667l1.265-5.969H158.1Zm1.808-8.534-.272,1.312h-1.666l.271-1.312Z" transform="translate(-10.526 -72.4)"/><path class="b" d="M160.328,74.664l-.154.768h.023a1.893,1.893,0,0,1,1.726-.886l-.307,1.489c-1.454-.094-1.654.756-1.784,1.347l-.686,3.251H157.48l1.264-5.969Z" transform="translate(-10.128 -72.041)"/><path class="b" d="M160.925,77.572c.344-1.631.876-3.026,3.074-3.026s2.138,1.4,1.8,3.026c-.4,1.868-.957,3.18-3.108,3.18S160.524,79.44,160.925,77.572Zm3.228-.1c.26-1.24.331-1.868-.379-1.868s-.9.627-1.158,1.868c-.389,1.821-.319,2.211.3,2.211s.846-.388,1.236-2.211Z" transform="translate(-9.569 -72.041)"/><path class="b" d="M166.826,78.407l-.331,1.56h-1.419l.331-1.56Z" transform="translate(-8.818 -71.375)"/></g></g></svg>